<svg width="67" height="67" viewBox="0 0 67 67" fill="none" xmlns="http://www.w3.org/2000/svg">
<path d="M53.8019 18.5066C56.6559 21.5379 58.1882 24.9378 58.1882 30.449C58.1882 40.147 51.3829 48.8392 41.4799 53.1368L39.0055 49.3186C48.2463 44.32 50.0529 37.8334 50.7761 33.7436C49.2882 34.5139 47.3403 34.7826 45.4284 34.6053C40.4297 34.1426 36.4896 30.0389 36.4896 24.9378C36.4896 22.3657 37.5113 19.899 39.33 18.0802C41.1488 16.2615 43.6155 15.2397 46.1876 15.2397C49.1607 15.2397 52.0064 16.5975 53.8019 18.5066ZM26.0933 18.5066C28.9473 21.5379 30.4796 24.9378 30.4796 30.449C30.4796 40.147 23.6743 48.8392 13.7712 53.1368L11.2969 49.3186C20.5377 44.32 22.3443 37.8334 23.0647 33.7436C21.5768 34.5139 19.6289 34.7826 17.7197 34.6053C12.7211 34.1454 8.78369 30.0417 8.78369 24.9378C8.78369 22.3657 9.80544 19.899 11.6242 18.0802C13.4429 16.2615 15.9096 15.2397 18.4817 15.2397C21.4549 15.2397 24.3005 16.5975 26.096 18.5066" fill="#E75041"/>
</svg>
